<mxfile host="app.diagrams.net" modified="2024-06-14T20:39:57.932Z" agent="Mozilla/5.0 (X11; Ubuntu; Linux x86_64; rv:125.0) Gecko/20100101 Firefox/125.0" etag="6R6d0XYtnM1Zv-ax9GSv" version="24.5.4" type="device">
  <diagram name="Page-1" id="nN2BIOLIoKrUu9gY-yQT">
    <mxGraphModel dx="2697" dy="1073" grid="1" gridSize="10" guides="1" tooltips="1" connect="1" arrows="1" fold="1" page="1" pageScale="1" pageWidth="850" pageHeight="1100" math="0" shadow="0">
      <root>
        <mxCell id="0" />
        <mxCell id="1" parent="0" />
        <mxCell id="4YjafXz7v--6a-LF6PUz-7" style="edgeStyle=orthogonalEdgeStyle;rounded=0;orthogonalLoop=1;jettySize=auto;html=1;" parent="1" source="4YjafXz7v--6a-LF6PUz-1" target="4YjafXz7v--6a-LF6PUz-5" edge="1">
          <mxGeometry relative="1" as="geometry" />
        </mxCell>
        <mxCell id="4YjafXz7v--6a-LF6PUz-1" value="&lt;font style=&quot;font-size: 14px;&quot; face=&quot;Lucida Console&quot;&gt;Inicio&lt;/font&gt;" style="ellipse;shape=doubleEllipse;whiteSpace=wrap;html=1;fillColor=#fad9d5;strokeColor=#ae4132;" parent="1" vertex="1">
          <mxGeometry x="-574" y="60" width="100" height="60" as="geometry" />
        </mxCell>
        <mxCell id="4YjafXz7v--6a-LF6PUz-9" style="edgeStyle=orthogonalEdgeStyle;rounded=0;orthogonalLoop=1;jettySize=auto;html=1;" parent="1" source="4YjafXz7v--6a-LF6PUz-5" target="4YjafXz7v--6a-LF6PUz-8" edge="1">
          <mxGeometry relative="1" as="geometry" />
        </mxCell>
        <mxCell id="4YjafXz7v--6a-LF6PUz-5" value="&lt;font style=&quot;font-size: 10px;&quot;&gt;&lt;b&gt;export AUGUSTUS_CONFIG_PATH=/&lt;/b&gt;ruta/hacia/directorio/de/Augustus/config/&lt;/font&gt;" style="shape=parallelogram;perimeter=parallelogramPerimeter;whiteSpace=wrap;html=1;fixedSize=1;" parent="1" vertex="1">
          <mxGeometry x="-595" y="160" width="142.5" height="70" as="geometry" />
        </mxCell>
        <mxCell id="4YjafXz7v--6a-LF6PUz-57" style="edgeStyle=orthogonalEdgeStyle;rounded=0;orthogonalLoop=1;jettySize=auto;html=1;" parent="1" source="4YjafXz7v--6a-LF6PUz-8" target="4YjafXz7v--6a-LF6PUz-56" edge="1">
          <mxGeometry relative="1" as="geometry" />
        </mxCell>
        <mxCell id="4YjafXz7v--6a-LF6PUz-8" value="Entrar al directorio raíz de Augustus&lt;b&gt;&lt;br&gt;&lt;/b&gt;" style="shape=ext;double=1;rounded=0;whiteSpace=wrap;html=1;" parent="1" vertex="1">
          <mxGeometry x="-604" y="270" width="160" height="70" as="geometry" />
        </mxCell>
        <mxCell id="4YjafXz7v--6a-LF6PUz-19" style="edgeStyle=orthogonalEdgeStyle;rounded=0;orthogonalLoop=1;jettySize=auto;html=1;" parent="1" source="4YjafXz7v--6a-LF6PUz-10" target="4YjafXz7v--6a-LF6PUz-18" edge="1">
          <mxGeometry relative="1" as="geometry" />
        </mxCell>
        <mxCell id="4YjafXz7v--6a-LF6PUz-10" value="&lt;div&gt;&lt;b&gt;perl&amp;nbsp;&lt;/b&gt;&lt;/div&gt;&lt;div&gt;&lt;b&gt;new_species.pl --species=minuevaespecie&lt;/b&gt;&lt;/div&gt;" style="shape=parallelogram;perimeter=parallelogramPerimeter;whiteSpace=wrap;html=1;fixedSize=1;" parent="1" vertex="1">
          <mxGeometry x="-595" y="490" width="142.5" height="70" as="geometry" />
        </mxCell>
        <mxCell id="4YjafXz7v--6a-LF6PUz-15" style="edgeStyle=orthogonalEdgeStyle;rounded=0;orthogonalLoop=1;jettySize=auto;html=1;" parent="1" source="4YjafXz7v--6a-LF6PUz-12" target="4YjafXz7v--6a-LF6PUz-14" edge="1">
          <mxGeometry relative="1" as="geometry" />
        </mxCell>
        <mxCell id="4YjafXz7v--6a-LF6PUz-12" value="&lt;div&gt;Instalar perl en el sistema&lt;br&gt;&lt;/div&gt;" style="shape=ext;double=1;rounded=0;whiteSpace=wrap;html=1;" parent="1" vertex="1">
          <mxGeometry x="-399" y="610" width="160" height="70" as="geometry" />
        </mxCell>
        <mxCell id="4YjafXz7v--6a-LF6PUz-21" style="edgeStyle=orthogonalEdgeStyle;rounded=0;orthogonalLoop=1;jettySize=auto;html=1;" parent="1" source="4YjafXz7v--6a-LF6PUz-14" target="4YjafXz7v--6a-LF6PUz-10" edge="1">
          <mxGeometry relative="1" as="geometry">
            <Array as="points">
              <mxPoint x="-189" y="755" />
              <mxPoint x="-189" y="525" />
            </Array>
          </mxGeometry>
        </mxCell>
        <mxCell id="4YjafXz7v--6a-LF6PUz-14" value="&lt;div&gt;&lt;b&gt;sudo apt update&lt;/b&gt;&lt;/div&gt;&lt;div&gt;&lt;b&gt;&amp;nbsp;sudo apt install perl&lt;/b&gt;&lt;/div&gt;" style="shape=parallelogram;perimeter=parallelogramPerimeter;whiteSpace=wrap;html=1;fixedSize=1;" parent="1" vertex="1">
          <mxGeometry x="-390" y="720" width="142.5" height="70" as="geometry" />
        </mxCell>
        <mxCell id="4YjafXz7v--6a-LF6PUz-20" style="edgeStyle=orthogonalEdgeStyle;rounded=0;orthogonalLoop=1;jettySize=auto;html=1;" parent="1" source="4YjafXz7v--6a-LF6PUz-18" target="4YjafXz7v--6a-LF6PUz-12" edge="1">
          <mxGeometry relative="1" as="geometry" />
        </mxCell>
        <mxCell id="4YjafXz7v--6a-LF6PUz-18" value="¿Error producido?" style="html=1;whiteSpace=wrap;aspect=fixed;shape=isoRectangle;" parent="1" vertex="1">
          <mxGeometry x="-598.75" y="600" width="150" height="90" as="geometry" />
        </mxCell>
        <mxCell id="4YjafXz7v--6a-LF6PUz-22" value="&lt;font style=&quot;font-size: 14px;&quot; face=&quot;Lucida Console&quot;&gt;Si&lt;/font&gt;" style="text;html=1;align=center;verticalAlign=middle;resizable=0;points=[];autosize=1;fillColor=#f5f5f5;fontColor=#333333;strokeColor=#666666;" parent="1" vertex="1">
          <mxGeometry x="-450.5" y="610" width="40" height="30" as="geometry" />
        </mxCell>
        <mxCell id="4YjafXz7v--6a-LF6PUz-23" value="&lt;font style=&quot;font-size: 14px;&quot; face=&quot;Lucida Console&quot;&gt;No&lt;/font&gt;" style="text;html=1;align=center;verticalAlign=middle;resizable=0;points=[];autosize=1;fillColor=#f5f5f5;fontColor=#333333;strokeColor=#666666;" parent="1" vertex="1">
          <mxGeometry x="-637" y="610" width="40" height="30" as="geometry" />
        </mxCell>
        <mxCell id="4YjafXz7v--6a-LF6PUz-26" value="" style="shape=curlyBracket;whiteSpace=wrap;html=1;rounded=1;flipH=1;labelPosition=right;verticalLabelPosition=middle;align=left;verticalAlign=middle;" parent="1" vertex="1">
          <mxGeometry x="-669" y="585" width="20" height="120" as="geometry" />
        </mxCell>
        <mxCell id="4YjafXz7v--6a-LF6PUz-27" style="edgeStyle=orthogonalEdgeStyle;rounded=0;orthogonalLoop=1;jettySize=auto;html=1;entryX=0.1;entryY=0.5;entryDx=0;entryDy=0;entryPerimeter=0;" parent="1" source="4YjafXz7v--6a-LF6PUz-18" target="4YjafXz7v--6a-LF6PUz-26" edge="1">
          <mxGeometry relative="1" as="geometry" />
        </mxCell>
        <mxCell id="4YjafXz7v--6a-LF6PUz-28" value="" style="shape=curlyBracket;whiteSpace=wrap;html=1;rounded=1;labelPosition=left;verticalLabelPosition=middle;align=right;verticalAlign=middle;" parent="1" vertex="1">
          <mxGeometry x="-777" y="585" width="20" height="120" as="geometry" />
        </mxCell>
        <mxCell id="fJNHVSMk-jcjcn3LFG_3-6" style="edgeStyle=orthogonalEdgeStyle;rounded=0;orthogonalLoop=1;jettySize=auto;html=1;" edge="1" parent="1" source="4YjafXz7v--6a-LF6PUz-50" target="fJNHVSMk-jcjcn3LFG_3-3">
          <mxGeometry relative="1" as="geometry" />
        </mxCell>
        <mxCell id="4YjafXz7v--6a-LF6PUz-50" value="&lt;div&gt;Nueva especie&amp;nbsp;&lt;/div&gt;&lt;div&gt;creada&lt;/div&gt;&lt;div&gt;exitosamente&lt;br&gt;&lt;/div&gt;" style="text;html=1;align=center;verticalAlign=middle;resizable=0;points=[];autosize=1;strokeColor=none;fillColor=none;" parent="1" vertex="1">
          <mxGeometry x="-768" y="618" width="110" height="60" as="geometry" />
        </mxCell>
        <mxCell id="4YjafXz7v--6a-LF6PUz-58" style="edgeStyle=orthogonalEdgeStyle;rounded=0;orthogonalLoop=1;jettySize=auto;html=1;" parent="1" source="4YjafXz7v--6a-LF6PUz-56" target="4YjafXz7v--6a-LF6PUz-10" edge="1">
          <mxGeometry relative="1" as="geometry" />
        </mxCell>
        <mxCell id="4YjafXz7v--6a-LF6PUz-56" value="&lt;b&gt;cd scripts/&lt;br&gt;&lt;/b&gt;" style="shape=parallelogram;perimeter=parallelogramPerimeter;whiteSpace=wrap;html=1;fixedSize=1;" parent="1" vertex="1">
          <mxGeometry x="-595" y="380" width="142.5" height="70" as="geometry" />
        </mxCell>
        <mxCell id="4YjafXz7v--6a-LF6PUz-59" value="&lt;font style=&quot;font-size: 14px;&quot; face=&quot;Lucida Console&quot;&gt;Fin&lt;/font&gt;" style="ellipse;shape=doubleEllipse;whiteSpace=wrap;html=1;fillColor=#fad9d5;strokeColor=#ae4132;" parent="1" vertex="1">
          <mxGeometry x="658.26" y="437" width="100" height="60" as="geometry" />
        </mxCell>
        <mxCell id="fJNHVSMk-jcjcn3LFG_3-10" style="edgeStyle=orthogonalEdgeStyle;rounded=0;orthogonalLoop=1;jettySize=auto;html=1;" edge="1" parent="1" source="fJNHVSMk-jcjcn3LFG_3-1" target="fJNHVSMk-jcjcn3LFG_3-9">
          <mxGeometry relative="1" as="geometry" />
        </mxCell>
        <mxCell id="fJNHVSMk-jcjcn3LFG_3-1" value="&lt;div&gt;Navegar hasta la suit de scripts para convertir gff a genbank &quot;etraining augustus with genbank file&quot;&lt;br&gt;&lt;/div&gt;" style="shape=ext;double=1;rounded=0;whiteSpace=wrap;html=1;" vertex="1" parent="1">
          <mxGeometry x="69" y="180" width="160" height="70" as="geometry" />
        </mxCell>
        <mxCell id="fJNHVSMk-jcjcn3LFG_3-43" style="edgeStyle=orthogonalEdgeStyle;rounded=0;orthogonalLoop=1;jettySize=auto;html=1;" edge="1" parent="1" source="fJNHVSMk-jcjcn3LFG_3-3" target="fJNHVSMk-jcjcn3LFG_3-39">
          <mxGeometry relative="1" as="geometry" />
        </mxCell>
        <mxCell id="fJNHVSMk-jcjcn3LFG_3-3" value="&lt;div&gt;Documentos&amp;nbsp; generados en Augustus/config/species/minuevaespecie:&lt;/div&gt;&lt;div&gt;_metapars.cfg&lt;/div&gt;&lt;div&gt;_metapars.cgp.cfg&lt;/div&gt;&lt;div&gt;_metapars.utr.cfg&lt;/div&gt;&lt;div&gt;_parameters.cfg&lt;br&gt;&lt;/div&gt;" style="shape=document;whiteSpace=wrap;html=1;boundedLbl=1;" vertex="1" parent="1">
          <mxGeometry x="-820" y="750" width="214" height="150" as="geometry" />
        </mxCell>
        <mxCell id="fJNHVSMk-jcjcn3LFG_3-12" style="edgeStyle=orthogonalEdgeStyle;rounded=0;orthogonalLoop=1;jettySize=auto;html=1;" edge="1" parent="1" source="fJNHVSMk-jcjcn3LFG_3-9" target="fJNHVSMk-jcjcn3LFG_3-11">
          <mxGeometry relative="1" as="geometry" />
        </mxCell>
        <mxCell id="fJNHVSMk-jcjcn3LFG_3-9" value="&lt;div&gt;./gff_to_genbank.sh archivo.gff&amp;nbsp;&lt;/div&gt;&lt;div&gt;archivo.fasta&lt;/div&gt;" style="shape=parallelogram;perimeter=parallelogramPerimeter;whiteSpace=wrap;html=1;fixedSize=1;" vertex="1" parent="1">
          <mxGeometry x="77.75" y="290" width="142.5" height="70" as="geometry" />
        </mxCell>
        <mxCell id="fJNHVSMk-jcjcn3LFG_3-17" style="edgeStyle=orthogonalEdgeStyle;rounded=0;orthogonalLoop=1;jettySize=auto;html=1;" edge="1" parent="1" source="fJNHVSMk-jcjcn3LFG_3-11" target="fJNHVSMk-jcjcn3LFG_3-16">
          <mxGeometry relative="1" as="geometry" />
        </mxCell>
        <mxCell id="fJNHVSMk-jcjcn3LFG_3-23" style="edgeStyle=orthogonalEdgeStyle;rounded=0;orthogonalLoop=1;jettySize=auto;html=1;" edge="1" parent="1" source="fJNHVSMk-jcjcn3LFG_3-11" target="fJNHVSMk-jcjcn3LFG_3-21">
          <mxGeometry relative="1" as="geometry" />
        </mxCell>
        <mxCell id="fJNHVSMk-jcjcn3LFG_3-11" value="¿Desea verificar el formato de su archivo gff3?" style="html=1;whiteSpace=wrap;aspect=fixed;shape=isoRectangle;" vertex="1" parent="1">
          <mxGeometry x="74" y="400" width="150" height="90" as="geometry" />
        </mxCell>
        <mxCell id="fJNHVSMk-jcjcn3LFG_3-15" value="&lt;font style=&quot;font-size: 14px;&quot; face=&quot;Lucida Console&quot;&gt;Si&lt;/font&gt;" style="text;html=1;align=center;verticalAlign=middle;resizable=0;points=[];autosize=1;fillColor=#f5f5f5;fontColor=#333333;strokeColor=#666666;" vertex="1" parent="1">
          <mxGeometry x="227" y="410" width="40" height="30" as="geometry" />
        </mxCell>
        <mxCell id="fJNHVSMk-jcjcn3LFG_3-20" style="edgeStyle=orthogonalEdgeStyle;rounded=0;orthogonalLoop=1;jettySize=auto;html=1;" edge="1" parent="1" source="fJNHVSMk-jcjcn3LFG_3-16" target="fJNHVSMk-jcjcn3LFG_3-18">
          <mxGeometry relative="1" as="geometry" />
        </mxCell>
        <mxCell id="fJNHVSMk-jcjcn3LFG_3-16" value="Saccharum hybrid cultivar formatted R570.gff3" style="shape=document;whiteSpace=wrap;html=1;boundedLbl=1;" vertex="1" parent="1">
          <mxGeometry x="273" y="405" width="120" height="80" as="geometry" />
        </mxCell>
        <mxCell id="fJNHVSMk-jcjcn3LFG_3-28" style="edgeStyle=orthogonalEdgeStyle;rounded=0;orthogonalLoop=1;jettySize=auto;html=1;" edge="1" parent="1" source="fJNHVSMk-jcjcn3LFG_3-18" target="fJNHVSMk-jcjcn3LFG_3-26">
          <mxGeometry relative="1" as="geometry">
            <Array as="points">
              <mxPoint x="333" y="670" />
            </Array>
          </mxGeometry>
        </mxCell>
        <mxCell id="fJNHVSMk-jcjcn3LFG_3-18" value="python3 gff_to_genbank.py Saccharum hybrid cultivar formatted R570.gff3 $fasta_file" style="shape=parallelogram;perimeter=parallelogramPerimeter;whiteSpace=wrap;html=1;fixedSize=1;" vertex="1" parent="1">
          <mxGeometry x="261.75" y="520" width="142.5" height="70" as="geometry" />
        </mxCell>
        <mxCell id="fJNHVSMk-jcjcn3LFG_3-27" style="edgeStyle=orthogonalEdgeStyle;rounded=0;orthogonalLoop=1;jettySize=auto;html=1;" edge="1" parent="1" source="fJNHVSMk-jcjcn3LFG_3-21" target="fJNHVSMk-jcjcn3LFG_3-26">
          <mxGeometry relative="1" as="geometry">
            <Array as="points">
              <mxPoint x="-47" y="670" />
            </Array>
          </mxGeometry>
        </mxCell>
        <mxCell id="fJNHVSMk-jcjcn3LFG_3-21" value="python3 gff_to_genbank.py $gff_file $fasta_file" style="shape=parallelogram;perimeter=parallelogramPerimeter;whiteSpace=wrap;html=1;fixedSize=1;" vertex="1" parent="1">
          <mxGeometry x="-110" y="410" width="142.5" height="70" as="geometry" />
        </mxCell>
        <mxCell id="fJNHVSMk-jcjcn3LFG_3-24" value="&lt;font style=&quot;font-size: 14px;&quot; face=&quot;Lucida Console&quot;&gt;No&lt;/font&gt;" style="text;html=1;align=center;verticalAlign=middle;resizable=0;points=[];autosize=1;fillColor=#f5f5f5;fontColor=#333333;strokeColor=#666666;" vertex="1" parent="1">
          <mxGeometry x="36" y="410" width="40" height="30" as="geometry" />
        </mxCell>
        <mxCell id="fJNHVSMk-jcjcn3LFG_3-30" style="edgeStyle=orthogonalEdgeStyle;rounded=0;orthogonalLoop=1;jettySize=auto;html=1;" edge="1" parent="1" source="fJNHVSMk-jcjcn3LFG_3-26" target="fJNHVSMk-jcjcn3LFG_3-29">
          <mxGeometry relative="1" as="geometry" />
        </mxCell>
        <mxCell id="fJNHVSMk-jcjcn3LFG_3-26" value="Saccharum hybrid cultivar formatted R570.gff3" style="shape=document;whiteSpace=wrap;html=1;boundedLbl=1;" vertex="1" parent="1">
          <mxGeometry x="89" y="630" width="120" height="80" as="geometry" />
        </mxCell>
        <mxCell id="fJNHVSMk-jcjcn3LFG_3-47" style="edgeStyle=orthogonalEdgeStyle;rounded=0;orthogonalLoop=1;jettySize=auto;html=1;" edge="1" parent="1" source="fJNHVSMk-jcjcn3LFG_3-29" target="fJNHVSMk-jcjcn3LFG_3-31">
          <mxGeometry relative="1" as="geometry" />
        </mxCell>
        <mxCell id="fJNHVSMk-jcjcn3LFG_3-29" value="./format_genbank_R570.sh" style="shape=parallelogram;perimeter=parallelogramPerimeter;whiteSpace=wrap;html=1;fixedSize=1;" vertex="1" parent="1">
          <mxGeometry x="77.75" y="750" width="142.5" height="70" as="geometry" />
        </mxCell>
        <mxCell id="fJNHVSMk-jcjcn3LFG_3-48" style="edgeStyle=orthogonalEdgeStyle;rounded=0;orthogonalLoop=1;jettySize=auto;html=1;" edge="1" parent="1" source="fJNHVSMk-jcjcn3LFG_3-31" target="fJNHVSMk-jcjcn3LFG_3-33">
          <mxGeometry relative="1" as="geometry" />
        </mxCell>
        <mxCell id="fJNHVSMk-jcjcn3LFG_3-31" value="&lt;div&gt;&lt;br&gt;&lt;/div&gt;&lt;div&gt;Etraining saccharum specie R570.gb&lt;br&gt;&lt;/div&gt;" style="shape=document;whiteSpace=wrap;html=1;boundedLbl=1;" vertex="1" parent="1">
          <mxGeometry x="267" y="745" width="120" height="80" as="geometry" />
        </mxCell>
        <mxCell id="fJNHVSMk-jcjcn3LFG_3-49" style="edgeStyle=orthogonalEdgeStyle;rounded=0;orthogonalLoop=1;jettySize=auto;html=1;" edge="1" parent="1" source="fJNHVSMk-jcjcn3LFG_3-33" target="fJNHVSMk-jcjcn3LFG_3-35">
          <mxGeometry relative="1" as="geometry" />
        </mxCell>
        <mxCell id="fJNHVSMk-jcjcn3LFG_3-33" value="Navegar hasta el directorio raíz de augustus" style="shape=ext;double=1;rounded=0;whiteSpace=wrap;html=1;" vertex="1" parent="1">
          <mxGeometry x="428.25" y="750" width="160" height="70" as="geometry" />
        </mxCell>
        <mxCell id="fJNHVSMk-jcjcn3LFG_3-50" style="edgeStyle=orthogonalEdgeStyle;rounded=0;orthogonalLoop=1;jettySize=auto;html=1;" edge="1" parent="1" source="fJNHVSMk-jcjcn3LFG_3-35" target="fJNHVSMk-jcjcn3LFG_3-37">
          <mxGeometry relative="1" as="geometry" />
        </mxCell>
        <mxCell id="fJNHVSMk-jcjcn3LFG_3-35" value="&lt;div&gt;etraining&amp;nbsp;&lt;/div&gt;&lt;div&gt;--species=minuevaespecie&amp;nbsp;&lt;/div&gt;&lt;div&gt;Etraining_saccharum specie_R570.gb&lt;/div&gt;" style="shape=parallelogram;perimeter=parallelogramPerimeter;whiteSpace=wrap;html=1;fixedSize=1;" vertex="1" parent="1">
          <mxGeometry x="630.63" y="745" width="155.25" height="80" as="geometry" />
        </mxCell>
        <mxCell id="fJNHVSMk-jcjcn3LFG_3-46" style="edgeStyle=orthogonalEdgeStyle;rounded=0;orthogonalLoop=1;jettySize=auto;html=1;" edge="1" parent="1" source="fJNHVSMk-jcjcn3LFG_3-37" target="4YjafXz7v--6a-LF6PUz-59">
          <mxGeometry relative="1" as="geometry" />
        </mxCell>
        <mxCell id="fJNHVSMk-jcjcn3LFG_3-37" value="&lt;div&gt;Documentos&amp;nbsp; generados en Augustus/config/species/minuevaespecie:&lt;/div&gt;&lt;div&gt;_exon_probs.pbl&lt;/div&gt;&lt;div&gt;_igenic_probs.pbl&lt;/div&gt;&lt;div&gt;_intron_probs.pbl&lt;/div&gt;" style="shape=document;whiteSpace=wrap;html=1;boundedLbl=1;" vertex="1" parent="1">
          <mxGeometry x="601.26" y="557" width="214" height="150" as="geometry" />
        </mxCell>
        <mxCell id="fJNHVSMk-jcjcn3LFG_3-39" value="&lt;font style=&quot;font-size: 14px;&quot; face=&quot;Lucida Console&quot;&gt;A&lt;/font&gt;" style="ellipse;whiteSpace=wrap;html=1;aspect=fixed;fillColor=#dae8fc;strokeColor=#6c8ebf;" vertex="1" parent="1">
          <mxGeometry x="-556" y="785" width="80" height="80" as="geometry" />
        </mxCell>
        <mxCell id="fJNHVSMk-jcjcn3LFG_3-42" style="edgeStyle=orthogonalEdgeStyle;rounded=0;orthogonalLoop=1;jettySize=auto;html=1;" edge="1" parent="1" source="fJNHVSMk-jcjcn3LFG_3-41" target="fJNHVSMk-jcjcn3LFG_3-1">
          <mxGeometry relative="1" as="geometry" />
        </mxCell>
        <mxCell id="fJNHVSMk-jcjcn3LFG_3-41" value="&lt;font style=&quot;font-size: 14px;&quot; face=&quot;Lucida Console&quot;&gt;A&lt;/font&gt;" style="ellipse;whiteSpace=wrap;html=1;aspect=fixed;fillColor=#dae8fc;strokeColor=#6c8ebf;" vertex="1" parent="1">
          <mxGeometry x="-50" y="60" width="80" height="80" as="geometry" />
        </mxCell>
      </root>
    </mxGraphModel>
  </diagram>
</mxfile>
